<?xml version="1.0" encoding="utf-8"?>
<!-- Generator: Adobe Illustrator 28.1.0, SVG Export Plug-In . SVG Version: 6.00 Build 0)  -->
<svg version="1.1" id="Capa_1" xmlns="http://www.w3.org/2000/svg" xmlns:xlink="http://www.w3.org/1999/xlink" x="0px" y="0px"
	 viewBox="0 0 1568 414" style="enable-background:new 0 0 1568 414;" xml:space="preserve">
<style type="text/css">
	.st0{fill-rule:evenodd;clip-rule:evenodd;fill:#39A935;}
	.st1{fill:#39A935;}
	.st2{fill:none;stroke:#9B9A9A;stroke-width:5.8648;stroke-miterlimit:10;}
	.st3{fill:#6FC5DE;}
	.st4{fill:#23325D;}
	.st5{fill:#9CC222;}
</style>
<g>
	<g>
		<path class="st0" d="M156.2,171L156.2,171c-0.1,0.5-0.1,0.8-0.1,1c0,1.3,0.7,2.2,2.1,2.8c1.4,0.6,3.6,0.9,6.6,0.9
			c2.3,0,4.1-0.3,5.4-0.8c1.3-0.5,1.9-1.2,1.9-2.1c0-1.3-2.6-2.4-7.7-3.2c-0.6-0.1-1-0.2-1.3-0.2c-0.3-0.1-0.8-0.1-1.4-0.2
			c-8.1-1.3-13.3-2.8-15.6-4.3c-1.1-0.8-2-1.7-2.6-2.7c-0.6-1-0.8-2.2-0.8-3.5c0-3.2,1.9-5.6,5.6-7.2c3.7-1.7,9.2-2.5,16.4-2.5
			c7.1,0,12.4,0.8,15.8,2.3c3.4,1.6,5.1,4,5.1,7.2v0.4H172v-0.1c0-1.1-0.7-1.9-2-2.5c-1.4-0.6-3.4-0.9-6-0.9c-2,0-3.6,0.2-4.7,0.6
			c-1.1,0.4-1.7,1-1.7,1.7c0,1.3,2.9,2.5,8.8,3.4c1.1,0.2,2,0.3,2.7,0.4c4.2,0.7,7.1,1.3,8.9,1.8c1.8,0.5,3.3,1.1,4.6,1.8
			c1.4,0.8,2.5,1.8,3.3,3c0.8,1.2,1.2,2.5,1.2,3.9c0,3.3-2,5.8-6.1,7.5c-4.1,1.8-9.9,2.6-17.5,2.6c-7.5,0-13-0.8-16.4-2.5
			c-3.4-1.7-5-4.4-5-8.2V171H156.2z M193,181.7v-32.2h38.3v6.9h-23.9v5.1h22.1v6.9h-22.1v6.2h24.8v7H193z M238.2,181.7v-32.2h18.2
			l19.5,21.6v-21.6h13.8v32.2h-18.9L252,160v21.7H238.2z M326.9,168.8l-6.9-11.7l-7.3,11.7H326.9z M305,181.7h-14.4l22.3-32.2h16
			l21.2,32.2h-16l-3.2-5.8h-22.3L305,181.7z"/>
		<g>
			<path class="st0" d="M176.4,295.1L163.5,283l39.1-67.9c2.1-3.7-0.5-8.3-4.8-8.3c-22.1,0-64,0-64,0v-17h103.1L176.4,295.1z"/>
			<path class="st0" d="M315.7,295.1l12.9-12.1l-39.1-67.9c-2.1-3.7,0.5-8.3,4.8-8.3c22.1,0,64,0,64,0v-17H255.2L315.7,295.1z"/>
		</g>
		<path class="st0" d="M245.3,207.8c0.1-0.2,0.1-0.2,0.1-0.2l58.1,96l-15.4,8l-37.4-62.7c-2.2-3.7-7.6-3.7-9.7,0
			c-12.5,21-37.2,62.7-37.2,62.7l-15.1-7.5C188.6,304.1,242.1,213,245.3,207.8z"/>
		<circle class="st1" cx="246" cy="116.6" r="24"/>
	</g>
	<line class="st2" x1="461.5" y1="95.5" x2="461.5" y2="321.3"/>
	<g>
		<path class="st3" d="M857.9,137.7h-26.6l-3.3,14.6h22l-1.6,7h-22l-5,21.6h-8.2l11.6-50.2h34.8L857.9,137.7z"/>
		<path class="st3" d="M885.3,181.6c-3.9,0-7.5-0.8-10.7-2.5c-3.2-1.7-5.8-4.2-7.8-7.5c-1.9-3.3-2.9-7.3-2.9-12
			c0-4,0.6-7.8,1.7-11.3c1.2-3.5,2.8-6.7,5-9.4c2.2-2.7,4.9-4.9,8.2-6.5s7-2.4,11.2-2.4c3.9,0,7.4,0.9,10.6,2.6
			c3.2,1.7,5.7,4.2,7.6,7.5c1.9,3.3,2.8,7.3,2.8,12c0,4-0.6,7.7-1.7,11.3s-2.8,6.7-5,9.5c-2.2,2.7-4.9,4.9-8.1,6.5
			C893.2,180.8,889.5,181.6,885.3,181.6z M885.9,174.4c2.8,0,5.2-0.6,7.3-1.9c2.1-1.3,3.9-3,5.3-5.2c1.4-2.2,2.5-4.6,3.2-7.3
			c0.7-2.7,1.1-5.4,1.1-8.1c0-3.1-0.6-5.8-1.7-8.1c-1.1-2.2-2.7-3.9-4.7-5.1c-2-1.2-4.3-1.7-7-1.7c-2.8,0-5.2,0.6-7.4,1.9
			c-2.1,1.3-3.9,3-5.4,5.2c-1.4,2.2-2.5,4.6-3.2,7.2c-0.7,2.7-1.1,5.4-1.1,8.2c0,3.1,0.6,5.8,1.7,8.1c1.1,2.2,2.7,3.9,4.7,5.1
			C880.8,173.9,883.2,174.4,885.9,174.4z"/>
		<path class="st3" d="M920.9,180.8l11.6-50.2h9.3l11.5,31.7l3,9.5h0.1l1.7-8.8l7.5-32.4h7.5l-11.6,50.2h-9.2l-11.7-31.6l-2.9-9.4
			h-0.1l-1.7,8.7l-7.5,32.4H920.9z"/>
		<path class="st3" d="M979.7,180.8l11.6-50.2h15.5c4.4,0,8.2,0.9,11.3,2.6s5.5,4.2,7.1,7.3c1.6,3.1,2.5,6.6,2.5,10.6
			c0,4.3-0.7,8.2-2,11.8c-1.3,3.6-3.2,6.7-5.7,9.4c-2.5,2.7-5.5,4.8-8.9,6.2c-3.5,1.5-7.3,2.2-11.6,2.2H979.7z M989.5,173.9h10.6
			c3,0,5.7-0.6,8.1-1.8c2.4-1.2,4.4-2.9,6-4.9c1.6-2.1,2.9-4.4,3.7-7.1c0.9-2.6,1.3-5.4,1.3-8.2c0-2.7-0.5-5.2-1.4-7.3
			c-1-2.2-2.4-3.8-4.4-5.1c-2-1.2-4.4-1.9-7.5-1.9h-7.9L989.5,173.9z"/>
		<path class="st3" d="M1061.6,181.6c-3.9,0-7.5-0.8-10.7-2.5c-3.2-1.7-5.8-4.2-7.8-7.5c-1.9-3.3-2.9-7.3-2.9-12
			c0-4,0.6-7.8,1.7-11.3c1.2-3.5,2.8-6.7,5-9.4c2.2-2.7,4.9-4.9,8.2-6.5s7-2.4,11.2-2.4c3.9,0,7.4,0.9,10.6,2.6
			c3.2,1.7,5.7,4.2,7.6,7.5c1.9,3.3,2.8,7.3,2.8,12c0,4-0.6,7.7-1.7,11.3s-2.8,6.7-5,9.5c-2.2,2.7-4.9,4.9-8.1,6.5
			C1069.4,180.8,1065.8,181.6,1061.6,181.6z M1062.2,174.4c2.8,0,5.2-0.6,7.3-1.9c2.1-1.3,3.9-3,5.3-5.2c1.4-2.2,2.5-4.6,3.2-7.3
			c0.7-2.7,1.1-5.4,1.1-8.1c0-3.1-0.6-5.8-1.7-8.1c-1.1-2.2-2.7-3.9-4.7-5.1c-2-1.2-4.3-1.7-7-1.7c-2.8,0-5.2,0.6-7.4,1.9
			c-2.1,1.3-3.9,3-5.4,5.2c-1.4,2.2-2.5,4.6-3.2,7.2c-0.7,2.7-1.1,5.4-1.1,8.2c0,3.1,0.6,5.8,1.7,8.1c1.1,2.2,2.7,3.9,4.7,5.1
			C1057.1,173.9,1059.5,174.4,1062.2,174.4z"/>
	</g>
	<g>
		<path class="st4" d="M797.3,263.5l15.4-66.5h53.9l-3.5,15.4h-33.4l-2.5,10.8h26.3l-3.2,14.3H824l-2.4,10.6h34.1l-3.6,15.4H797.3z"
			/>
		<path class="st4" d="M860.4,263.5l15.4-66.5h25.6l2.6,29l0.6,16.7h0.1l8.2-16.7l15.2-29h29l-15.4,66.5h-18l6.1-26.6l4.7-20.3h-0.1
			L909,263.5h-15.6l-4.8-46.4h-0.2l-3.6,19.8l-6.1,26.6H860.4z"/>
		<path class="st4" d="M953.9,263.5l15.4-66.5h27c8.4,0,15,1.8,19.7,5.4c4.7,3.6,7.1,8.7,7.1,15.3c0,5-1.2,9.4-3.6,13.2
			c-2.4,3.8-5.8,6.8-10.2,9c-4.4,2.2-9.7,3.2-15.8,3.2h-24l3.3-14.9h19.4c2.3,0,4.2-0.4,5.7-1.3c1.5-0.8,2.7-1.9,3.6-3.3
			c0.8-1.3,1.3-2.9,1.3-4.5c0-2.2-0.7-4-2.1-5.2c-1.4-1.3-3.6-1.9-6.8-1.9h-7.5l-11.9,51.6H953.9z"/>
		<path class="st4" d="M1022.7,263.5l15.4-66.5h30.9c7.1,0,12.8,1.7,16.9,5.1c4.2,3.4,6.2,8.1,6.2,14.2c0,5.2-1.2,9.5-3.6,13.1
			c-2.4,3.5-5.7,6.2-9.9,8.1c-4.2,1.8-9,2.8-14.5,2.9l-3.3,1h-14.2l3.1-14h11.5c2.3,0,4.2-0.4,5.8-1.1c1.6-0.7,2.8-1.8,3.7-3.1
			c0.9-1.3,1.3-2.8,1.3-4.6c0-2.3-0.8-3.9-2.3-4.9c-1.5-1-3.5-1.5-5.8-1.5h-9.1l-11.9,51.5H1022.7z M1066.1,263.5l-10.8-29l18.3-2.9
			l13,32H1066.1z"/>
		<path class="st4" d="M1092.4,263.5l15.4-66.5h53.9l-3.5,15.4h-33.4l-2.5,10.8h26.3l-3.2,14.3h-26.3l-2.4,10.6h34.1l-3.6,15.4
			H1092.4z"/>
		<path class="st4" d="M1155.5,263.5l15.4-66.5h21.7l10.4,33.8l2.7,10.1h0.2l2.9-15l6.7-28.8h18l-15.4,66.5h-21.4l-10.8-33
			l-2.8-10.1h-0.2l-2.7,14.2l-6.7,28.8H1155.5z"/>
		<path class="st4" d="M1230.2,263.5l15.4-66.5h25c6.5,0,12,1.1,16.3,3.4c4.4,2.3,7.7,5.5,9.9,9.5c2.2,4.1,3.3,8.8,3.3,14.3
			c0,5.9-0.8,11.3-2.5,16.1c-1.6,4.8-4.1,9-7.3,12.4c-3.2,3.4-7.1,6.1-11.7,8c-4.6,1.9-9.8,2.8-15.7,2.8H1230.2z M1254.4,248.5h7.5
			c3,0,5.7-0.7,7.9-2.2c2.3-1.4,4.1-3.4,5.5-5.7c1.4-2.4,2.5-5,3.2-8s1.1-5.8,1.1-8.7c0-2.5-0.4-4.6-1.2-6.4c-0.8-1.8-2-3.1-3.6-4.1
			c-1.6-0.9-3.7-1.4-6.2-1.4h-5.6L1254.4,248.5z"/>
		<path class="st4" d="M1301.5,263.5l15.4-66.5h53.9l-3.5,15.4H1334l-2.5,10.8h26.3l-3.2,14.3h-26.3l-2.4,10.6h34.1l-3.6,15.4
			H1301.5z"/>
		<path class="st4" d="M1364.7,263.5l15.4-66.5h30.9c7.1,0,12.8,1.7,16.9,5.1c4.2,3.4,6.2,8.1,6.2,14.2c0,5.2-1.2,9.5-3.6,13.1
			c-2.4,3.5-5.7,6.2-9.9,8.1c-4.2,1.8-9,2.8-14.5,2.9l-3.3,1h-14.2l3.1-14h11.5c2.3,0,4.2-0.4,5.8-1.1c1.6-0.7,2.8-1.8,3.7-3.1
			c0.9-1.3,1.3-2.8,1.3-4.6c0-2.3-0.8-3.9-2.3-4.9c-1.5-1-3.5-1.5-5.8-1.5h-9.1l-11.9,51.5H1364.7z M1408,263.5l-10.8-29l18.3-2.9
			l13,32H1408z"/>
	</g>
	<g>
		<path class="st4" d="M581.7,116l143.7-0.4c0,0,23.6-0.4,26.3,19.7c1,20.8-23.1,19.3-23.1,19.3S583,134,578.9,133.4
			c-4.1-0.7-17.5-4.5-16.8-10.5C564.5,116.7,581.7,116,581.7,116z"/>
		<path class="st5" d="M561.9,150.5c0,0-0.8-7.8,23.2-2.9c1.7,0.4,143.9,33.7,144.5,33.9c34.9,10.9,26,50.2-7,36.1
			c-1.9-0.8-108.1-39.9-108.1-39.9s0,23.7-0.2,22.2c1.6,23.6-44.7-8.3-52.5-22.7C561.8,175.9,561.9,150.5,561.9,150.5z"/>
		<path class="st3" d="M660.5,214.9c-7.4-3.2-16.3-5.9-20.5,0.6c-4.3,6.7,9.3,21.2,16.1,25.3c1.2,0.8,67.6,41.5,67.6,41.5
			s22.3,14.2,27.3-0.7c3.9-17.8-19-33.5-21.8-34.7C728,246.4,667.9,218.1,660.5,214.9z"/>
	</g>
</g>
</svg>
